<svg xmlns="http://www.w3.org/2000/svg" viewBox="0 0 1000 1000">
    <g id="face">
        <path d="M274,586.82c-1-28.36,18-52.36,43.29-63.56a62.23,62.23,0,0,1,8.15-2.7,70,70,0,0,1,42.22,2.68,71.54,71.54,0,0,1,8.92,4.16c29.53,15.88,42.79,53.25,31.36,83.46a59.6,59.6,0,0,1-4.18,8.82,63.85,63.85,0,0,1-4.71,7.8,65.78,65.78,0,0,1-5.68,7,64,64,0,0,1-7.12,6.07,68.37,68.37,0,0,1-7.85,5c-27.38,13-64.38,9-86.44-11.4a68.18,68.18,0,0,1-6.11-7.47,65,65,0,0,1-5.58-9.5,55.59,55.59,0,0,1-5.71-21.73A73.42,73.42,0,0,1,274,586.82Z" style="fill:#f3ab98"/>
        <path d="M272.32,568.47c-1-28.36,18-52.36,43.28-63.56a62.37,62.37,0,0,1,8.16-2.7A70,70,0,0,1,366,504.89a70.88,70.88,0,0,1,8.92,4.16c29.54,15.89,42.79,53.25,31.36,83.46a59.6,59.6,0,0,1-4.18,8.82,63.85,63.85,0,0,1-4.71,7.8,64.78,64.78,0,0,1-5.68,7,63.08,63.08,0,0,1-7.12,6.07,68.37,68.37,0,0,1-7.85,5c-27.38,13-64.38,9-86.44-11.4a67.24,67.24,0,0,1-6.11-7.47,65,65,0,0,1-5.58-9.5A55.59,55.59,0,0,1,272.87,577,71.3,71.3,0,0,1,272.32,568.47Z" style="fill:#fff;stroke:#592d3d;stroke-miterlimit:10;stroke-width:12px"/>
        <circle cx="341.06" cy="569.08" r="12.24" style="fill:#592d3d"/>
        <line x1="341.06" y1="500.14" x2="341.06" y2="486.4" style="fill:none;stroke:#592d3d;stroke-linecap:round;stroke-miterlimit:10;stroke-width:8px"/>
        <line x1="354.89" y1="501.54" x2="357.65" y2="488.08" style="fill:none;stroke:#592d3d;stroke-linecap:round;stroke-miterlimit:10;stroke-width:8px"/>
        <line x1="368.16" y1="505.69" x2="373.56" y2="493.06" style="fill:none;stroke:#592d3d;stroke-linecap:round;stroke-miterlimit:10;stroke-width:8px"/>
        <line x1="380.32" y1="512.42" x2="388.15" y2="501.12" style="fill:none;stroke:#592d3d;stroke-linecap:round;stroke-miterlimit:10;stroke-width:8px"/>
        <line x1="326.37" y1="501.73" x2="323.44" y2="488.3" style="fill:none;stroke:#592d3d;stroke-linecap:round;stroke-miterlimit:10;stroke-width:8px"/>
        <line x1="313.16" y1="506.04" x2="307.6" y2="493.48" style="fill:none;stroke:#592d3d;stroke-linecap:round;stroke-miterlimit:10;stroke-width:8px"/>
        <line x1="301.08" y1="512.92" x2="293.11" y2="501.73" style="fill:none;stroke:#592d3d;stroke-linecap:round;stroke-miterlimit:10;stroke-width:8px"/>
        <path d="M586.44,578.76c.44-15.13,6.67-30.09,15.1-41.33a72.82,72.82,0,0,1,7.12-8.53,69.88,69.88,0,0,1,96.7-3.82c27,21.45,30.12,63.14,15.32,93.23a62.31,62.31,0,0,1-4.78,6.86,72.09,72.09,0,0,1-7.58,8.13c-20.27,17.83-51.81,22.13-77.4,12.42a71,71,0,0,1-10.56-5c-17.9-10.78-30.37-31.09-33.42-52.23A61.71,61.71,0,0,1,586.44,578.76Z" style="fill:#f3ab98"/>
        <path d="M591.93,567.26c.42-14.15,6.42-28.15,14.53-38.66a69.47,69.47,0,0,1,6.85-8,68.55,68.55,0,0,1,86.77-8.37,69.81,69.81,0,0,1,6.28,4.79c26,20.07,29,59.07,14.74,87.22a56.5,56.5,0,0,1-4.6,6.42,68,68,0,0,1-7.29,7.6C689.71,635,659.36,639,634.73,629.9a68.91,68.91,0,0,1-10.16-4.71c-17.22-10.08-29.22-29.08-32.17-48.85A58.73,58.73,0,0,1,591.93,567.26Z" style="fill:#fff;stroke:#592d3d;stroke-miterlimit:10;stroke-width:12px"/>
        <circle cx="661.77" cy="569.08" r="12.24" style="fill:#592d3d"/>
        <line x1="661.16" y1="500.14" x2="661.16" y2="486.4" style="fill:none;stroke:#592d3d;stroke-linecap:round;stroke-miterlimit:10;stroke-width:8px"/>
        <line x1="674.99" y1="501.54" x2="677.75" y2="488.08" style="fill:none;stroke:#592d3d;stroke-linecap:round;stroke-miterlimit:10;stroke-width:8px"/>
        <line x1="688.26" y1="505.69" x2="693.66" y2="493.06" style="fill:none;stroke:#592d3d;stroke-linecap:round;stroke-miterlimit:10;stroke-width:8px"/>
        <line x1="700.43" y1="512.42" x2="708.25" y2="501.12" style="fill:none;stroke:#592d3d;stroke-linecap:round;stroke-miterlimit:10;stroke-width:8px"/>
        <line x1="646.48" y1="501.73" x2="643.55" y2="488.3" style="fill:none;stroke:#592d3d;stroke-linecap:round;stroke-miterlimit:10;stroke-width:8px"/>
        <line x1="633.26" y1="506.04" x2="627.7" y2="493.48" style="fill:none;stroke:#592d3d;stroke-linecap:round;stroke-miterlimit:10;stroke-width:8px"/>
        <line x1="621.18" y1="512.92" x2="613.21" y2="501.73" style="fill:none;stroke:#592d3d;stroke-linecap:round;stroke-miterlimit:10;stroke-width:8px"/>
    </g>
</svg>
